{"asset":{"version":"2.0","generator":"Blockbench 4.8.3 glTF exporter"},"scenes":[{"nodes":[19],"name":"blockbench_export"}],"scene":0,"nodes":[{"translation":[0,-0.3333333333333333,0],"name":"left_foot"},{"translation":[0,-0.3333333333333333,0],"name":"left_knee","children":[0]},{"translation":[-0.1111111111111111,-0.38888888888888884,0],"name":"left_leg","children":[1]},{"translation":[0,-0.3333333333333333,0],"name":"right_foot"},{"translation":[0,-0.3333333333333333,0],"name":"right_knee","children":[3]},{"translation":[0.1111111111111111,-0.38888888888888884,0],"name":"right_leg","children":[4]},{"translation":[0,0.16666666666666666,0],"name":"hair"},{"translation":[0,0.3333333333333333,0],"name":"head","children":[6]},{"translation":[0,0.2777777777777778,0],"name":"neck","children":[7]},{"translation":[0,-0.3333333333333333,0],"name":"left_hand"},{"translation":[0,-0.2777777777777778,0],"name":"left_armpit","children":[9]},{"translation":[-0.16666666666666666,0,0],"name":"left_arm","children":[10]},{"translation":[-0.16666666666666666,0.2222222222222222,0],"name":"left_shoulder","children":[11]},{"translation":[0,-0.3333333333333333,0],"name":"right_hand"},{"translation":[0,-0.2777777777777778,0],"name":"right_armpit","children":[13]},{"translation":[0.16666666666666666,0,0],"name":"right_arm","children":[14]},{"translation":[0.16666666666666666,0.2222222222222222,0],"name":"right_shoulder","children":[15]},{"translation":[0,0.05555555555555555,0],"name":"body","children":[2,5,8,12,16]},{"name":"root","children":[17]},{"translation":[0,1.0555555555555556,0],"name":"root","mesh":0,"children":[18],"skin":0}],"bufferViews":[{"buffer":0,"byteOffset":0,"byteLength":71424,"target":34962,"byteStride":12},{"buffer":0,"byteOffset":71424,"byteLength":71424,"target":34962,"byteStride":12},{"buffer":0,"byteOffset":142848,"byteLength":47616,"target":34962,"byteStride":8},{"buffer":0,"byteOffset":190464,"byteLength":47616,"target":34962,"byteStride":8},{"buffer":0,"byteOffset":238080,"byteLength":95232,"target":34962,"byteStride":16},{"buffer":0,"byteOffset":333312,"byteLength":17856,"target":34963},{"buffer":0,"byteOffset":351168,"byteLength":1216},{"buffer":0,"byteOffset":352384,"byteLength":28},{"buffer":0,"byteOffset":352412,"byteLength":112},{"buffer":0,"byteOffset":352524,"byteLength":20},{"buffer":0,"byteOffset":352544,"byteLength":80},{"buffer":0,"byteOffset":352624,"byteLength":28},{"buffer":0,"byteOffset":352652,"byteLength":112},{"buffer":0,"byteOffset":352764,"byteLength":28},{"buffer":0,"byteOffset":352792,"byteLength":112},{"buffer":0,"byteOffset":352904,"byteLength":28},{"buffer":0,"byteOffset":352932,"byteLength":112},{"buffer":0,"byteOffset":353044,"byteLength":20},{"buffer":0,"byteOffset":353064,"byteLength":80},{"buffer":0,"byteOffset":353144,"byteLength":28},{"buffer":0,"byteOffset":353172,"byteLength":112}],"buffers":[{"byteLength":353284,"uri":"data:application/octet-stream;base64,"}],"accessors":[{"bufferView":0,"componentType":5126,"count":5952,"max":[0.4444444477558136,0.8333333134651184,0.2777777910232544],"min":[-0.4444444477558136,-1.0555555820465088,-0.2777777910232544],"type":"VEC3"},{"bufferView":1,"componentType":5126,"count":5952,"max":[1,1,1],"min":[-1,-1,-1],"type":"VEC3"},{"bufferView":2,"componentType":5126,"count":5952,"max":[0.828125,0.828125],"min":[0,0],"type":"VEC2"},{"bufferView":3,"componentType":5123,"count":5952,"max":[0,18,0,0],"min":[0,1,0,0],"type":"VEC4"},{"bufferView":4,"componentType":5126,"count":5952,"max":[0,1,0,0],"min":[0,1,0,0],"type":"VEC4"},{"bufferView":5,"componentType":5123,"count":8928,"max":[5951],"min":[0],"type":"SCALAR"},{"bufferView":6,"componentType":5126,"count":19,"max":[1,0,0,0,0,1,0,0,0,0,1,0,0.3333333432674408,1,0,1],"min":[1,0,0,0,0,1,0,0,0,0,1,0,-0.3333333432674408,-0.8333333134651184,0,1],"type":"MAT4"},{"bufferView":7,"componentType":5126,"count":7,"max":[1.5],"min":[0],"type":"SCALAR"},{"bufferView":8,"componentType":5126,"count":7,"max":[0,0,-0.02181488461792469,0.9997619986534119],"min":[0,0,-0.10886687785387039,0.9940563440322876],"type":"VEC4"},{"bufferView":9,"componentType":5126,"count":5,"max":[1.25],"min":[0.25],"type":"SCALAR"},{"bufferView":10,"componentType":5126,"count":5,"max":[0,0,-0.04361938685178757,0.9990482330322266],"min":[0,0,-0.04361938685178757,0.9990482330322266],"type":"VEC4"},{"bufferView":11,"componentType":5126,"count":7,"max":[1.5],"min":[0],"type":"SCALAR"},{"bufferView":12,"componentType":5126,"count":7,"max":[0,0,0.10886687785387039,0.9997619986534119],"min":[0,0,0.02181488461792469,0.9940563440322876],"type":"VEC4"},{"bufferView":13,"componentType":5126,"count":7,"max":[1.5],"min":[0],"type":"SCALAR"},{"bufferView":14,"componentType":5126,"count":7,"max":[0,0,-0.02181488461792469,0.9997619986534119],"min":[0,0,-0.237685889005661,0.9713420867919922],"type":"VEC4"},{"bufferView":15,"componentType":5126,"count":7,"max":[1.5],"min":[0],"type":"SCALAR"},{"bufferView":16,"componentType":5126,"count":7,"max":[0.8516285419464111,0.46527358889579773,0,1],"min":[0,0,-0.31989917159080505,0.26813051104545593],"type":"VEC4"},{"bufferView":17,"componentType":5126,"count":5,"max":[1.5],"min":[0],"type":"SCALAR"},{"bufferView":18,"componentType":5126,"count":5,"max":[0.2774350345134735,-0.02343668043613434,0.12531165778636932,0.9990482330322266],"min":[-3.3740371607748898e-15,-0.05489996075630188,0.0367882177233696,0.9518364667892456],"type":"VEC4"},{"bufferView":19,"componentType":5126,"count":7,"max":[1.5],"min":[0],"type":"SCALAR"},{"bufferView":20,"componentType":5126,"count":7,"max":[0,0,0.1736481785774231,0.9997619986534119],"min":[0,0,0.02181488461792469,0.9848077297210693],"type":"VEC4"}],"materials":[{"pbrMetallicRoughness":{"metallicFactor":0,"roughnessFactor":1,"baseColorTexture":{"index":0}},"alphaMode":"MASK","alphaCutoff":0.05,"doubleSided":true}],"textures":[{"sampler":0,"source":0,"name":"texture.png"}],"samplers":[{"magFilter":9728,"minFilter":9728,"wrapS":33071,"wrapT":33071}],"images":[{"mimeType":"image/png","uri":"data:image/png;base64,"}],"meshes":[{"primitives":[{"mode":4,"attributes":{"POSITION":0,"NORMAL":1,"TEXCOORD_0":2,"JOINTS_0":3,"WEIGHTS_0":4},"indices":5,"material":0}]}],"skins":[{"inverseBindMatrices":6,"joints":[18,17,2,1,0,5,4,3,8,7,6,12,11,10,9,16,15,14,13],"skeleton":18}],"animations":[{"name":"animation.player.wave","samplers":[{"input":7,"output":8,"interpolation":"LINEAR"},{"input":9,"output":10,"interpolation":"LINEAR"},{"input":11,"output":12,"interpolation":"LINEAR"},{"input":13,"output":14,"interpolation":"LINEAR"},{"input":15,"output":16,"interpolation":"LINEAR"},{"input":17,"output":18,"interpolation":"LINEAR"},{"input":19,"output":20,"interpolation":"LINEAR"}],"channels":[{"sampler":0,"target":{"node":17,"path":"rotation"}},{"sampler":1,"target":{"node":2,"path":"rotation"}},{"sampler":2,"target":{"node":5,"path":"rotation"}},{"sampler":3,"target":{"node":12,"path":"rotation"}},{"sampler":4,"target":{"node":11,"path":"rotation"}},{"sampler":5,"target":{"node":10,"path":"rotation"}},{"sampler":6,"target":{"node":15,"path":"rotation"}}]}]}